
<svg xmlns="http://www.w3.org/2000/svg" version="1.1" xmlns:xlink="http://www.w3.org/1999/xlink" preserveAspectRatio="none" x="0px" y="0px" width="1841px" height="1080px" viewBox="0 0 1841 1080">
<defs>
<g id="___1_0_Layer0_0_MEMBER_0_MEMBER_0_FILL">
<path fill="#EB278D" stroke="none" d="
M 1239.25 -103.2
L 1180.9 -103.2 1180.9 42.55 1239.25 42.55 1239.25 -103.2 Z"></path>
</g>

<g id="___1_0_Layer0_0_MEMBER_0_MEMBER_1_FILL">
<path fill="#EB278D" stroke="none" d="
M 1401.85 -99.25
Q 1395.95 -103.1 1389.6 -104.95 1383.15 -106.85 1376.55 -106.85 1368.1 -106.85 1360 -104.25 1351.85 -101.7 1344.6 -97.45 1337.25 -93.1 1331.6 -87.5 1325.5 -81.65 1321.95 -75.75
L 1321.95 -103.2 1267.1 -103.2 1267.1 42.55 1325.5 42.55 1325.5 -47.1
Q 1325.5 -51.8 1327.85 -55.9 1330.25 -59.95 1333.95 -62.85 1337.5 -65.65 1342.3 -67.45 1347.15 -69.15 1351.45 -69.15 1357.75 -69.15 1362 -66.65 1366.25 -64 1368.6 -60 1371 -55.85 1372.05 -50.6 1373.05 -45.2 1373.05 -39.8
L 1373.05 42.55 1431.45 42.55 1431.45 -42.1
Q 1431.45 -47.35 1433.35 -52.1 1435.25 -57 1438.45 -60.75 1441.6 -64.45 1445.9 -66.85 1450.2 -69.15 1454.8 -69.15 1461.65 -69.15 1465.95 -66.05 1470.25 -62.85 1472.65 -58.4 1475.05 -53.9 1475.95 -48.8 1476.85 -43.7 1476.85 -39.8
L 1476.85 42.55 1535.2 42.55 1535.2 -48.35
Q 1535.2 -61.45 1532.35 -72.25 1529.6 -82.95 1523.25 -90.75 1517 -98.45 1506.75 -102.65 1496.55 -106.85 1481.95 -106.85 1472.95 -106.85 1463.8 -104.6 1454.7 -102.35 1446.55 -98.4 1438.6 -94.5 1431.75 -88.95 1425.15 -83.5 1420.9 -76.95 1417.45 -84.35 1412.5 -89.95 1407.65 -95.5 1401.85 -99.25 Z"></path>
</g>

<g id="___1_0_Layer0_0_MEMBER_0_MEMBER_2_FILL">
<path fill="#EB278D" stroke="none" d="
M 1241.35 -167.4
Q 1241.35 -180.6 1232.05 -189.9 1222.7 -199.25 1209.55 -199.25 1196.4 -199.25 1187.05 -189.9 1177.75 -180.6 1177.75 -167.4 1177.75 -154.25 1187.05 -144.9 1196.4 -135.6 1209.55 -135.6 1222.7 -135.6 1232.05 -144.9 1241.35 -154.25 1241.35 -167.4 Z"></path>
</g>

<g id="___1_0_Layer0_0_MEMBER_0_MEMBER_3_FILL">
<path fill="#373637" stroke="none" d="
M 1093.6 -112.8
Q 1083.05 -115.8 1071.3 -115.8 1035.8 -115.8 1011.7 -92.35 987.55 -68.95 987.55 -34.55 987.55 -0.95 1011.7 23 1035.9 46.95 1069.9 46.95 1103.95 46.95 1128 23.1 1152.05 -0.7 1152.05 -34.55
L 1152.05 -206.7 1093.6 -206.7 1093.6 -112.8
M 1049 -14.45
Q 1040.6 -22.8 1040.6 -34.7 1040.6 -46.55 1049 -54.9 1057.35 -63.3 1069.2 -63.3 1081.05 -63.3 1089.45 -54.9 1097.8 -46.55 1097.8 -34.7 1097.8 -22.8 1089.45 -14.45 1081.05 -6.05 1069.2 -6.05 1057.35 -6.05 1049 -14.45 Z"></path>
</g>

<g id="___1_0_Layer0_0_MEMBER_0_MEMBER_4_FILL">
<path fill="#373637" stroke="none" d="
M 1586.4 -91.45
Q 1562.25 -67.5 1562.25 -33.85 1562.25 0.5 1586.4 23.9 1610.5 47.35 1646.05 47.35 1679.3 47.35 1703.05 23.45 1705.5 21 1708.15 17.85
L 1728.05 47.15 1776.55 14.7 1715.85 -74.95
Q 1710.55 -83.75 1702.75 -91.55 1678.65 -115.4 1644.6 -115.4 1610.6 -115.4 1586.4 -91.45
M 1623.7 -53.95
Q 1632.05 -62.35 1643.9 -62.35 1655.75 -62.35 1664.15 -53.95 1672.55 -45.6 1672.55 -33.7 1672.55 -21.85 1664.15 -13.45 1655.75 -5.1 1643.9 -5.1 1632.05 -5.1 1623.7 -13.45 1615.3 -21.85 1615.3 -33.7 1615.3 -45.6 1623.7 -53.95 Z"></path>
</g>

<g id="___1_0_Layer0_0_MEMBER_1_MEMBER_0_FILL">
<path fill="#373637" stroke="none" d="
M 1010.8 245.5
Q 1010.8 240.4 1007.9 237.65 1004.95 235 999.7 235
L 989.65 235 989.65 275.55 999.7 275.55
Q 1005 275.55 1007.9 272.85 1010.8 270.2 1010.8 265.05
L 1010.8 245.5
M 994.8 238.95
L 999.7 238.95
Q 1002.4 238.95 1004.05 240.45 1005.7 242.05 1005.7 244.55
L 1005.7 266
Q 1005.7 268.55 1004.05 270.1 1002.35 271.65 999.7 271.65
L 994.8 271.65 994.8 238.95 Z"></path>
</g>

<g id="___1_0_Layer0_0_MEMBER_1_MEMBER_1_FILL">
<path fill="#373637" stroke="none" d="
M 1038 245
Q 1038 240.05 1035.15 237.35 1032.35 234.6 1026.9 234.6 1021.45 234.6 1018.6 237.35 1015.75 240.05 1015.75 245
L 1015.75 265.55
Q 1015.75 270.5 1018.6 273.2 1021.45 275.95 1026.9 275.95 1032.35 275.95 1035.15 273.2 1038 270.5 1038 265.55
L 1038 245
M 1020.9 244.05
Q 1020.9 241.3 1022.6 239.9 1024.35 238.4 1026.85 238.4 1029.45 238.4 1031.15 239.9 1032.9 241.35 1032.9 244.05
L 1032.9 266.5
Q 1032.9 269.2 1031.15 270.65 1029.45 272.15 1026.85 272.15 1024.35 272.15 1022.6 270.65 1020.9 269.25 1020.9 266.5
L 1020.9 244.05 Z"></path>
</g>

<g id="___1_0_Layer0_0_MEMBER_1_MEMBER_2_FILL">
<path fill="#373637" stroke="none" d="
M 1067.35 235
L 1062.2 235 1062.2 270.05 1052.75 235 1044.25 235 1044.25 275.55 1049.35 275.55 1049.35 238.7 1060.05 275.55 1067.35 275.55 1067.35 235 Z"></path>
</g>

<g id="___1_0_Layer0_0_MEMBER_1_MEMBER_3_FILL">
<path fill="#373637" stroke="none" d="
M 1093.8 238.85
L 1093.8 235 1085.3 235
Q 1079.95 235 1076.75 237.65 1073.65 240.3 1073.65 245.4
L 1073.65 265.05
Q 1073.65 270.2 1076.55 272.9 1079.35 275.55 1084.7 275.55
L 1094.95 275.55 1094.95 251.95 1084.65 251.95 1084.65 255.8 1089.85 255.8 1089.85 271.75 1084.45 271.75
Q 1081.9 271.75 1080.3 270.25 1078.75 268.8 1078.75 266.1
L 1078.75 244.5
Q 1078.75 242 1080.4 240.4 1082.1 238.85 1084.7 238.85
L 1093.8 238.85 Z"></path>
</g>

<g id="___1_0_Layer0_0_MEMBER_1_MEMBER_4_FILL">
<path fill="#373637" stroke="none" d="
M 1099.25 255.65
L 1112.7 255.65 1112.7 251.8 1099.25 251.8 1099.25 255.65 Z"></path>
</g>

<g id="___1_0_Layer0_0_MEMBER_1_MEMBER_5_FILL">
<path fill="#373637" stroke="none" d="
M 1129.9 235
L 1122.2 235 1113.05 275.55 1118 275.55 1120.6 263.65 1131.15 263.65 1134 275.55 1138.75 275.55 1129.9 235
M 1125.7 238.8
L 1126.1 238.8 1130.25 259.7 1121.45 259.7 1125.7 238.8 Z"></path>
</g>

<g id="___1_0_Layer0_0_MEMBER_1_MEMBER_6_FILL">
<path fill="#373637" stroke="none" d="
M 1165.85 235
L 1160.75 235 1160.75 252.15 1149.2 252.15 1149.2 235 1144.1 235 1144.1 275.55 1149.2 275.55 1149.2 255.95 1160.75 255.95 1160.75 275.55 1165.85 275.55 1165.85 235 Z"></path>
</g>

<g id="___1_0_Layer0_0_MEMBER_1_MEMBER_7_FILL">
<path fill="#373637" stroke="none" d="
M 1188.1 235
L 1183 235 1183 275.55 1188.1 275.55 1188.1 235 Z"></path>
</g>

<g id="___1_0_Layer0_0_MEMBER_1_MEMBER_8_FILL">
<path fill="#373637" stroke="none" d="
M 1219.25 275.55
L 1219.25 235 1214.1 235 1214.1 270.05 1204.65 235 1196.1 235 1196.1 275.55 1201.2 275.55 1201.2 238.7 1211.95 275.55 1219.25 275.55 Z"></path>
</g>

<g id="___1_0_Layer0_0_MEMBER_1_MEMBER_9_FILL">
<path fill="#373637" stroke="none" d="
M 1231.2 244.5
Q 1231.2 242.45 1232.65 240.6 1234.1 238.8 1236.85 238.8
L 1241.35 238.8 1241.35 235 1236.65 235
Q 1231.7 235 1228.95 237.75 1226.15 240.5 1226.15 245.2 1226.15 247.9 1227.1 249.85 1228.05 251.85 1229.5 253.05
L 1235.75 257.85
Q 1237.15 258.85 1238.2 260.75 1239.15 262.65 1239.15 265.2 1239.15 267.8 1237.65 269.75 1236.15 271.75 1232.85 271.75
L 1226.55 271.75 1226.55 275.55 1232.65 275.55
Q 1238.05 275.55 1241.15 272.8 1244.25 270 1244.25 264.55 1244.25 261.7 1243.3 259.3 1242.3 256.9 1240.85 255.6 1239.45 254.25 1237.7 252.9 1236.25 251.75 1234.55 250.6 1233.15 249.65 1232.15 248.1 1231.2 246.65 1231.2 244.5 Z"></path>
</g>

<g id="___1_0_Layer0_0_MEMBER_1_MEMBER_10_FILL">
<path fill="#373637" stroke="none" d="
M 1260.05 238.8
L 1268.2 238.8 1268.2 235 1246.85 235 1246.85 238.8 1254.95 238.8 1254.95 275.55 1260.05 275.55 1260.05 238.8 Z"></path>
</g>

<g id="___1_0_Layer0_0_MEMBER_1_MEMBER_11_FILL">
<path fill="#373637" stroke="none" d="
M 1278.65 235
L 1273.55 235 1273.55 275.55 1278.65 275.55 1278.65 235 Z"></path>
</g>

<g id="___1_0_Layer0_0_MEMBER_1_MEMBER_12_FILL">
<path fill="#373637" stroke="none" d="
M 1297.3 238.8
L 1305.4 238.8 1305.4 235 1284.05 235 1284.05 238.8 1292.2 238.8 1292.2 275.55 1297.3 275.55 1297.3 238.8 Z"></path>
</g>

<g id="___1_0_Layer0_0_MEMBER_1_MEMBER_13_FILL">
<path fill="#373637" stroke="none" d="
M 1329.6 235
L 1324.5 235 1324.5 266.5
Q 1324.5 269.35 1323.15 270.75 1321.65 272.15 1319.3 272.15 1316.9 272.15 1315.5 270.75 1314.15 269.35 1314.15 266.5
L 1314.15 235 1309.05 235 1309.05 265.55
Q 1309.05 275.95 1319.35 275.95 1329.6 275.95 1329.6 265.55
L 1329.6 235 Z"></path>
</g>

<g id="___1_0_Layer0_0_MEMBER_1_MEMBER_14_FILL">
<path fill="#373637" stroke="none" d="
M 1346.5 238.8
L 1354.6 238.8 1354.6 235 1333.3 235 1333.3 238.8 1341.4 238.8 1341.4 275.55 1346.5 275.55 1346.5 238.8 Z"></path>
</g>

<g id="___1_0_Layer0_0_MEMBER_1_MEMBER_15_FILL">
<path fill="#373637" stroke="none" d="
M 1377.7 238.95
L 1377.7 235 1360 235 1360 275.55 1378.25 275.55 1378.25 271.65 1365.1 271.65 1365.1 255.85 1375.3 255.85 1375.3 251.9 1365.1 251.9 1365.1 238.95 1377.7 238.95 Z"></path>
</g>

<g id="___1_0_Layer0_0_MEMBER_1_MEMBER_16_FILL">
<path fill="#373637" stroke="none" d="
M 1413.95 245
Q 1413.95 240.1 1411.15 237.35 1408.35 234.6 1402.85 234.6 1397.45 234.6 1394.6 237.35 1391.75 240.05 1391.75 245
L 1391.75 265.55
Q 1391.75 270.5 1394.6 273.2 1397.45 275.95 1402.85 275.95 1408.35 275.95 1411.15 273.2 1413.95 270.5 1413.95 265.55
L 1413.95 245
M 1396.85 244.05
Q 1396.85 241.35 1398.6 239.9 1400.25 238.4 1402.85 238.4 1405.35 238.4 1407.15 239.9 1408.85 241.3 1408.85 244.05
L 1408.85 266.5
Q 1408.85 269.25 1407.15 270.65 1405.35 272.15 1402.85 272.15 1400.25 272.15 1398.6 270.65 1396.85 269.2 1396.85 266.5
L 1396.85 244.05 Z"></path>
</g>

<g id="___1_0_Layer0_0_MEMBER_1_MEMBER_17_FILL">
<path fill="#373637" stroke="none" d="
M 1425.8 238.95
L 1437.8 238.95 1437.8 235 1420.7 235 1420.7 275.55 1425.8 275.55 1425.8 256.8 1434.85 256.8 1434.85 252.85 1425.8 252.85 1425.8 238.95 Z"></path>
</g>

<g id="___1_0_Layer0_0_MEMBER_1_MEMBER_18_FILL">
<path fill="#373637" stroke="none" d="
M 1451.3 275.55
L 1456.4 275.55 1456.4 241 1464.15 264.8 1469.7 264.8 1477.45 241.05 1477.45 275.55 1482.55 275.55 1482.55 235 1475.15 235 1467.2 259 1466.8 259 1459 235 1451.3 235 1451.3 275.55 Z"></path>
</g>

<g id="___1_0_Layer0_0_MEMBER_1_MEMBER_19_FILL">
<path fill="#373637" stroke="none" d="
M 1508.1 238.95
L 1508.1 235 1490.45 235 1490.45 275.55 1508.7 275.55 1508.7 271.65 1495.55 271.65 1495.55 255.85 1505.75 255.85 1505.75 251.9 1495.55 251.9 1495.55 238.95 1508.1 238.95 Z"></path>
</g>

<g id="___1_0_Layer0_0_MEMBER_1_MEMBER_20_FILL">
<path fill="#373637" stroke="none" d="
M 1536.35 245.5
Q 1536.35 240.35 1533.45 237.65 1530.5 235 1525.25 235
L 1515.2 235 1515.2 275.55 1525.25 275.55
Q 1530.55 275.55 1533.45 272.85 1536.35 270.25 1536.35 265.05
L 1536.35 245.5
M 1520.35 238.95
L 1525.25 238.95
Q 1527.95 238.95 1529.6 240.45 1531.25 242.05 1531.25 244.55
L 1531.25 266
Q 1531.25 268.55 1529.6 270.1 1527.9 271.65 1525.25 271.65
L 1520.35 271.65 1520.35 238.95 Z"></path>
</g>

<g id="___1_0_Layer0_0_MEMBER_1_MEMBER_21_FILL">
<path fill="#373637" stroke="none" d="
M 1548.15 235
L 1543.05 235 1543.05 275.55 1548.15 275.55 1548.15 235 Z"></path>
</g>

<g id="___1_0_Layer0_0_MEMBER_1_MEMBER_22_FILL">
<path fill="#373637" stroke="none" d="
M 1570.45 235
L 1562.7 235 1553.55 275.55 1558.5 275.55 1561.1 263.65 1571.65 263.65 1574.5 275.55 1579.25 275.55 1570.45 235
M 1566.2 238.8
L 1566.6 238.8 1570.8 259.7 1561.95 259.7 1566.2 238.8 Z"></path>
</g>

<g id="___1_0_Layer0_0_MEMBER_1_MEMBER_23_FILL">
<path fill="#373637" stroke="none" d="
M 1607.1 235
L 1599.4 235 1590.25 275.55 1595.2 275.55 1597.8 263.65 1608.35 263.65 1611.2 275.55 1615.95 275.55 1607.1 235
M 1602.9 238.8
L 1603.3 238.8 1607.45 259.7 1598.65 259.7 1602.9 238.8 Z"></path>
</g>

<g id="___1_0_Layer0_0_MEMBER_1_MEMBER_24_FILL">
<path fill="#373637" stroke="none" d="
M 1644 235
L 1638.85 235 1638.85 270.05 1629.4 235 1620.85 235 1620.85 275.55 1625.95 275.55 1625.95 238.7 1636.7 275.55 1644 275.55 1644 235 Z"></path>
</g>

<g id="___1_0_Layer0_0_MEMBER_1_MEMBER_25_FILL">
<path fill="#373637" stroke="none" d="
M 1673.1 245.5
Q 1673.1 240.35 1670.2 237.65 1667.25 235 1662 235
L 1651.95 235 1651.95 275.55 1662 275.55
Q 1667.3 275.55 1670.2 272.85 1673.1 270.25 1673.1 265.05
L 1673.1 245.5
M 1662 238.95
Q 1664.7 238.95 1666.35 240.45 1668 242.05 1668 244.55
L 1668 266
Q 1668 268.55 1666.35 270.1 1664.65 271.65 1662 271.65
L 1657.1 271.65 1657.1 238.95 1662 238.95 Z"></path>
</g>

<g id="___1_0_Layer0_0_MEMBER_1_MEMBER_26_FILL">
<path fill="#373637" stroke="none" d="
M 1703.55 263.65
L 1706.35 275.55 1711.1 275.55 1702.3 235 1694.6 235 1685.45 275.55 1690.35 275.55 1693 263.65 1703.55 263.65
M 1698.1 238.8
L 1698.5 238.8 1702.65 259.7 1693.85 259.7 1698.1 238.8 Z"></path>
</g>

<g id="___1_0_Layer0_0_MEMBER_1_MEMBER_27_FILL">
<path fill="#373637" stroke="none" d="
M 1737.65 245.75
Q 1737.65 235 1727.25 235
L 1716.5 235 1716.5 275.55 1721.5 275.55 1721.5 257.75 1726.85 257.75 1734.7 275.55 1739.7 275.55 1731.65 257
Q 1734.5 255.9 1736.1 252.85 1737.65 249.9 1737.65 245.75
M 1721.6 238.8
L 1725.75 238.8
Q 1732.7 238.8 1732.7 245.75 1732.7 249.45 1730.85 251.65 1729.05 253.95 1725.75 253.95
L 1721.6 253.95 1721.6 238.8 Z"></path>
</g>

<g id="___1_0_Layer0_0_MEMBER_1_MEMBER_28_FILL">
<path fill="#373637" stroke="none" d="
M 1755.25 238.8
L 1763.35 238.8 1763.35 235 1742 235 1742 238.8 1750.15 238.8 1750.15 275.55 1755.25 275.55 1755.25 238.8 Z"></path>
</g>

<g id="___1_0_Layer0_0_MEMBER_1_MEMBER_29_FILL">
<path fill="#373637" stroke="none" d="
M 1772.7 244.5
Q 1772.7 242.35 1774.15 240.6 1775.6 238.8 1778.35 238.8
L 1782.85 238.8 1782.85 235 1778.15 235
Q 1773.2 235 1770.45 237.75 1767.65 240.5 1767.65 245.2 1767.65 247.9 1768.6 249.85 1769.55 251.85 1771 253.05 1772.2 254.05 1774.15 255.5
L 1777.25 257.85
Q 1778.7 258.85 1779.65 260.75 1780.65 262.6 1780.65 265.2 1780.65 267.8 1779.15 269.75 1777.65 271.75 1774.35 271.75
L 1768.05 271.75 1768.05 275.55 1774.15 275.55
Q 1779.55 275.55 1782.65 272.8 1785.75 270 1785.75 264.55 1785.75 261.6 1784.75 259.3 1783.85 256.95 1782.35 255.6 1780.95 254.25 1779.2 252.9
L 1776.05 250.6
Q 1774.65 249.65 1773.65 248.1 1772.7 246.65 1772.7 244.5 Z"></path>
</g>

<g id="___1_0_Layer0_0_MEMBER_2_MEMBER_0_FILL">
<path fill="#373637" stroke="none" d="
M 1002.85 140.8
Q 1005.2 143.05 1009.5 143.05
L 1026 143.05 1026 151.8 1025.85 151.95 1025.75 152 990 152 990 162.8 1020.35 162.8
Q 1017.85 164.15 1015.65 166.15 1008.75 172.6 1008.75 181.9 1008.75 190.65 1015.75 196.9 1022.65 203.2 1031.95 203.2 1041.05 203.2 1048 196.95 1055.15 190.55 1055.15 181.9 1055.15 172.65 1047.9 166.15 1045.8 164.2 1043.25 162.8
L 1073.6 162.8 1073.6 152 1037.65 152 1037.6 151.6 1037.6 143.05 1062 143.05 1062 131.95 1012.8 131.95 1012.2 131.9 1012.15 131.4 1012.15 119.95 1012.5 119.9 1061.55 119.9 1061.55 108.7 1008.7 108.7
Q 1004.65 108.7 1002.6 111.15 1000.55 113.35 1000.55 117.35
L 1000.55 134.3
Q 1000.55 138.5 1002.85 140.8
M 1031.75 192.15
Q 1026.8 192.15 1023.35 189 1019.85 185.9 1019.85 181.5 1019.85 177 1023.15 173.85 1026.6 170.7 1031.65 170.7 1036.55 170.7 1040.15 173.85 1043.65 177.1 1043.65 181.5 1043.65 185.9 1040.15 189 1036.7 192.15 1031.75 192.15 Z"></path>
</g>

<g id="___1_0_Layer0_0_MEMBER_2_MEMBER_1_FILL">
<path fill="#373637" stroke="none" d="
M 1119.6 121.45
Q 1111.95 114.1 1101.5 114.1 1091 114.1 1083.4 121.45 1075.7 129 1075.7 139.7 1075.7 150.2 1083.5 157.6 1091.15 165.1 1101.6 165.1 1111.9 165.1 1119.5 157.65 1127.4 150.15 1127.4 139.7 1127.4 129.05 1119.6 121.45
M 1111.35 129.65
Q 1115.75 133.8 1115.75 139.6 1115.75 145.15 1111.55 149.35 1107.2 153.55 1101.5 153.55 1095.8 153.55 1091.45 149.35 1087.25 145.25 1087.25 139.6 1087.25 133.7 1091.35 129.65 1095.45 125.55 1101.4 125.55 1107.1 125.55 1111.35 129.65 Z"></path>
</g>

<g id="___1_0_Layer0_0_MEMBER_2_MEMBER_2_FILL">
<path fill="#373637" stroke="none" d="
M 1147.7 133.35
L 1147.2 133.3 1147.15 108.5 1135.25 108.5 1135.25 201.35 1147.15 201.35 1147.2 144.15 1162 144.15 1162 133.35 1147.7 133.35 Z"></path>
</g>

<g id="___1_0_Layer0_0_MEMBER_2_MEMBER_3_FILL">
<path fill="#373637" stroke="none" d="
M 1192.2 181.9
Q 1192.2 190.7 1199.25 196.9 1206.1 203.2 1215.4 203.2 1224.5 203.2 1231.45 196.95 1238.6 190.55 1238.6 181.9 1238.6 172.65 1231.4 166.15 1224.45 159.9 1215.2 159.9 1206.05 159.9 1199.1 166.15 1192.2 172.65 1192.2 181.9
M 1203.3 181.5
Q 1203.3 177.05 1206.6 173.85 1210.05 170.7 1215.1 170.7 1220 170.7 1223.6 173.85 1227.1 177.1 1227.1 181.5 1227.1 185.9 1223.6 189 1220.15 192.15 1215.2 192.15 1210.25 192.15 1206.8 189 1203.3 185.9 1203.3 181.5 Z"></path>
</g>

<g id="___1_0_Layer0_0_MEMBER_2_MEMBER_4_FILL">
<path fill="#373637" stroke="none" d="
M 1239.75 126.7
L 1239.05 126.65 1239 108.5 1227.3 108.5 1227.3 159.35 1239 159.35 1239.05 137.55 1239.55 137.5 1253.05 137.5 1253.05 126.7 1239.75 126.7 Z"></path>
</g>

<g id="___1_0_Layer0_0_MEMBER_2_MEMBER_5_FILL">
<path fill="#373637" stroke="none" d="
M 1204.15 110.8
L 1204.15 122.5 1204.1 123.15 1183.65 123.15 1183 123.1 1182.95 122.7 1182.95 110.8 1171.45 110.8 1171.45 147.3
Q 1171.45 151.1 1173.5 153.55 1175.7 156.05 1179.7 156.05
L 1207.7 156.05
Q 1211.65 156.05 1213.65 153.2 1215.55 150.85 1215.55 146.9
L 1215.55 110.8 1204.15 110.8
M 1183 134.1
L 1183.65 134.05 1203.8 134.05 1204.1 134.1 1204.15 144.4
Q 1204.15 144.9 1203.95 145.15
L 1183.75 145.15 1183.15 145.1 1183.05 145
Q 1182.95 144.9 1182.95 144.4
L 1182.95 134.75 1183 134.1 Z"></path>
</g>

<g id="___1_0_Layer0_0_MEMBER_2_MEMBER_6_FILL">
<path fill="#373637" stroke="none" d="
M 1303.55 151.8
L 1303.4 151.75 1303.4 137.6 1291.75 137.6 1291.75 151.75 1291.5 151.8 1255.75 151.8 1255.75 162.7 1286.45 162.7
Q 1283.95 164 1281.6 166.15 1274.7 172.6 1274.7 181.9 1274.7 190.65 1281.7 196.9 1288.6 203.2 1297.9 203.2 1306.95 203.2 1313.95 196.95 1321.1 190.55 1321.1 181.9 1321.1 172.65 1313.85 166.15 1311.65 164.1 1309 162.7
L 1339.35 162.7 1339.35 151.8 1303.55 151.8
M 1309.6 181.5
Q 1309.6 185.9 1306.05 189 1302.7 192.15 1297.7 192.15 1292.75 192.15 1289.3 189 1285.8 185.95 1285.8 181.5 1285.8 177 1289.1 173.85 1292.55 170.7 1297.6 170.7 1302.45 170.7 1306.05 173.85 1309.6 177.1 1309.6 181.5 Z"></path>
</g>

<g id="___1_0_Layer0_0_MEMBER_2_MEMBER_7_FILL">
<path fill="#373637" stroke="none" d="
M 1671.85 127
L 1671.85 116.1 1649.35 116.1 1649.35 105.95 1637.7 105.95 1637.7 116.05 1637.45 116.1 1615.2 116.1 1615.2 127 1624.65 127
Q 1620.65 132.5 1620.65 139.45 1620.65 148.25 1627.65 154.5 1634.6 160.75 1643.85 160.75 1652.9 160.75 1659.9 154.5 1667.05 148.1 1667.05 139.45 1667.05 132.5 1662.85 127
L 1671.85 127
M 1635.25 146.6
Q 1631.75 143.45 1631.75 139.05 1631.75 134.55 1635.05 131.45 1638.5 128.3 1643.55 128.3 1648.4 128.3 1652 131.45 1655.55 134.7 1655.55 139.05 1655.55 143.45 1652 146.6 1648.65 149.75 1643.65 149.75 1638.7 149.75 1635.25 146.6 Z"></path>
</g>

<g id="___1_0_Layer0_0_MEMBER_2_MEMBER_8_FILL">
<path fill="#373637" stroke="none" d="
M 1428.3 108.5
L 1416.95 108.5 1416.95 201.35 1428.3 201.35 1428.3 108.5 Z"></path>
</g>

<g id="___1_0_Layer0_0_MEMBER_2_MEMBER_9_FILL">
<path fill="#373637" stroke="none" d="
M 1484.75 157.05
L 1485 157.15 1520.8 157.15 1520.8 147.7 1437.2 147.7 1437.2 157.15 1472.4 157.15 1472.55 157.05 1472.9 157.1 1472.9 162.65 1446.95 162.65 1446.95 172.2 1498.25 172.2
Q 1498.65 172.2 1498.8 172.35
L 1498.85 172.4
Q 1499 172.5 1499 173
L 1499 176.2
Q 1499 176.85 1498.9 177.05
L 1498.75 177.2
Q 1498.7 177.25 1498.35 177.25
L 1450.55 177.25
Q 1448.6 177.25 1447.4 178.3 1445.95 179.55 1445.95 182.1
L 1445.95 192.95
Q 1445.95 196.5 1447.85 198.85 1450.15 201.6 1454.1 201.6
L 1512.35 201.6 1512.35 192.05 1457.5 192.05 1457.25 192 1457.2 191.95 1457.15 191.4 1457.2 186.55 1457.5 186.5 1503.15 186.5
Q 1505.85 186.5 1507.8 185.05 1510.65 182.9 1510.65 178.25
L 1510.65 167.4
Q 1510.65 162.65 1505.45 162.65
L 1484.4 162.65 1484.4 157.4 1484.45 157.1 1484.75 157.05 Z"></path>
</g>

<g id="___1_0_Layer0_0_MEMBER_2_MEMBER_10_FILL">
<path fill="#373637" stroke="none" d="
M 1533.2 116.95
Q 1531 119.1 1531 122.65
L 1531 168.25
Q 1531 172.1 1533.35 174.7 1535.85 177.4 1540.05 177.4
L 1553.8 177.4
Q 1558.7 177.4 1563.9 176.9 1574.25 176.15 1575.6 175.95
L 1575.6 201.35 1586.75 201.35 1586.75 145.35 1594.45 145.35 1594.5 145.4 1594.5 201.35 1605.7 201.35 1605.7 108.5 1594.5 108.5 1594.5 134.65 1586.75 134.65 1586.75 109.2 1575.6 109.2 1575.6 165.15
Q 1574.7 165.25 1563.85 166 1558.25 166.4 1553.8 166.4
L 1543.05 166.4 1542.55 166.35 1542.5 165.85 1542.5 126.1 1566.05 126.1 1566.05 115 1538.95 115
Q 1535.4 115 1533.2 116.95 Z"></path>
</g>

<g id="___1_0_Layer0_0_MEMBER_2_MEMBER_11_FILL">
<path fill="#373637" stroke="none" d="
M 1628 166.05
L 1628 177.15 1676.6 177.15
Q 1677.45 177.15 1677.7 177.35
L 1677.85 178.35 1677.85 201.2 1689.6 201.2 1689.6 174.8
Q 1689.6 170.85 1687.65 168.6 1685.5 166.05 1681.4 166.05
L 1628 166.05 Z"></path>
</g>

<g id="___1_0_Layer0_0_MEMBER_2_MEMBER_12_FILL">
<path fill="#373637" stroke="none" d="
M 1689.6 108.5
L 1677.85 108.5 1677.85 160.9 1689.6 160.9 1689.6 139.55 1703.6 139.55 1703.6 128.75 1690.35 128.75 1689.75 128.65 1689.7 128.6
Q 1689.6 128.45 1689.6 127.85
L 1689.6 108.5 Z"></path>
</g>

<g id="___1_0_Layer0_0_MEMBER_2_MEMBER_13_FILL">
<path fill="#373637" stroke="none" d="
M 1761.5 124.8
Q 1761.65 124.8 1761.7 124.85
L 1761.85 125.9 1761.85 165.85 1773.65 165.85 1773.65 121.95
Q 1773.65 118.85 1771.5 116.55 1769.35 114 1766.1 114
L 1710.9 114 1710.9 124.8 1761.5 124.8 Z"></path>
</g>

<g id="___1_0_Layer0_0_MEMBER_2_MEMBER_14_FILL">
<path fill="#373637" stroke="none" d="
M 1783.1 191.25
L 1783.1 180.35 1753.05 180.35 1753 180 1753 145.15 1741.5 145.15 1741.5 180.3 1741.25 180.35 1731.6 180.35 1731.55 180 1731.55 145.15 1719.95 145.15 1719.95 180 1719.9 180.3
Q 1719.9 180.35 1719.7 180.35
L 1703 180.35 1703 191.25 1783.1 191.25 Z"></path>
</g>

<g id="___1_0_Layer0_0_MEMBER_2_MEMBER_15_FILL">
<path fill="#373637" stroke="none" d="
M 1349.55 121.75
Q 1342.15 129 1342.15 139.25 1342.15 149.3 1349.65 156.5 1357.1 163.7 1367.05 163.7 1376.9 163.7 1384.25 156.5
L 1384.8 155.95 1399.15 155.95 1399.2 156.5 1399.2 201.35 1410.3 201.35 1410.3 109.2 1399.2 109.2 1399.2 123.1 1385.65 123.1 1384.35 121.75
Q 1376.85 114.65 1366.95 114.65 1356.8 114.65 1349.55 121.75
M 1366.85 125.65
Q 1372.4 125.65 1376.4 129.65 1380.65 133.6 1380.65 139.15 1380.65 144.45 1376.6 148.5 1372.5 152.55 1366.95 152.55 1361.4 152.55 1357.25 148.5 1353.25 144.6 1353.25 139.15 1353.25 133.5 1357.15 129.6 1361.2 125.65 1366.85 125.65
M 1391.05 145.3
Q 1391.85 142.55 1391.85 139.25 1391.85 136.4 1391.25 133.75
L 1399.15 133.75 1399.2 134.3 1399.2 145.3 1391.05 145.3 Z"></path>
</g>

<g id="___1_0_Layer0_0_MEMBER_2_MEMBER_16_FILL">
<path fill="#373637" stroke="none" d="
M 1330.55 139.85
L 1297.45 107.6 1265.1 139.5 1273.55 147.55 1297.6 123.5 1322 147.4 1330.55 139.85 Z"></path>
</g>

<g id="___1_0_Layer0_0_MEMBER_2_MEMBER_17_FILL">
<path fill="#373637" stroke="none" d="
M 1503.15 143.45
L 1510.85 135.65 1478.6 106.8 1447.25 135.65 1454.75 143.55 1478.75 121.45 1503.15 143.45 Z"></path>
</g>
</defs>

<g transform="matrix( 2.05242919921875, 0, 0, 2.05242919921875, 920.5,540) ">
<g transform="matrix( 1, 0, 0, 1, -1386.65,-34.6) ">
<use xlink:href="#___1_0_Layer0_0_MEMBER_0_MEMBER_0_FILL"></use>
</g>

<g transform="matrix( 1, 0, 0, 1, -1386.65,-34.6) ">
<use xlink:href="#___1_0_Layer0_0_MEMBER_0_MEMBER_1_FILL"></use>
</g>

<g transform="matrix( 1, 0, 0, 1, -1386.65,-34.6) ">
<use xlink:href="#___1_0_Layer0_0_MEMBER_0_MEMBER_2_FILL"></use>
</g>

<g transform="matrix( 1, 0, 0, 1, -1386.65,-34.6) ">
<use xlink:href="#___1_0_Layer0_0_MEMBER_0_MEMBER_3_FILL"></use>
</g>

<g transform="matrix( 1, 0, 0, 1, -1386.65,-34.6) ">
<use xlink:href="#___1_0_Layer0_0_MEMBER_0_MEMBER_4_FILL"></use>
</g>

<g transform="matrix( 1, 0, 0, 1, -1386.65,-34.6) ">
<use xlink:href="#___1_0_Layer0_0_MEMBER_1_MEMBER_0_FILL"></use>
</g>

<g transform="matrix( 1, 0, 0, 1, -1386.65,-34.6) ">
<use xlink:href="#___1_0_Layer0_0_MEMBER_1_MEMBER_1_FILL"></use>
</g>

<g transform="matrix( 1, 0, 0, 1, -1386.65,-34.6) ">
<use xlink:href="#___1_0_Layer0_0_MEMBER_1_MEMBER_2_FILL"></use>
</g>

<g transform="matrix( 1, 0, 0, 1, -1386.65,-34.6) ">
<use xlink:href="#___1_0_Layer0_0_MEMBER_1_MEMBER_3_FILL"></use>
</g>

<g transform="matrix( 1, 0, 0, 1, -1386.65,-34.6) ">
<use xlink:href="#___1_0_Layer0_0_MEMBER_1_MEMBER_4_FILL"></use>
</g>

<g transform="matrix( 1, 0, 0, 1, -1386.65,-34.6) ">
<use xlink:href="#___1_0_Layer0_0_MEMBER_1_MEMBER_5_FILL"></use>
</g>

<g transform="matrix( 1, 0, 0, 1, -1386.65,-34.6) ">
<use xlink:href="#___1_0_Layer0_0_MEMBER_1_MEMBER_6_FILL"></use>
</g>

<g transform="matrix( 1, 0, 0, 1, -1386.65,-34.6) ">
<use xlink:href="#___1_0_Layer0_0_MEMBER_1_MEMBER_7_FILL"></use>
</g>

<g transform="matrix( 1, 0, 0, 1, -1386.65,-34.6) ">
<use xlink:href="#___1_0_Layer0_0_MEMBER_1_MEMBER_8_FILL"></use>
</g>

<g transform="matrix( 1, 0, 0, 1, -1386.65,-34.6) ">
<use xlink:href="#___1_0_Layer0_0_MEMBER_1_MEMBER_9_FILL"></use>
</g>

<g transform="matrix( 1, 0, 0, 1, -1386.65,-34.6) ">
<use xlink:href="#___1_0_Layer0_0_MEMBER_1_MEMBER_10_FILL"></use>
</g>

<g transform="matrix( 1, 0, 0, 1, -1386.65,-34.6) ">
<use xlink:href="#___1_0_Layer0_0_MEMBER_1_MEMBER_11_FILL"></use>
</g>

<g transform="matrix( 1, 0, 0, 1, -1386.65,-34.6) ">
<use xlink:href="#___1_0_Layer0_0_MEMBER_1_MEMBER_12_FILL"></use>
</g>

<g transform="matrix( 1, 0, 0, 1, -1386.65,-34.6) ">
<use xlink:href="#___1_0_Layer0_0_MEMBER_1_MEMBER_13_FILL"></use>
</g>

<g transform="matrix( 1, 0, 0, 1, -1386.65,-34.6) ">
<use xlink:href="#___1_0_Layer0_0_MEMBER_1_MEMBER_14_FILL"></use>
</g>

<g transform="matrix( 1, 0, 0, 1, -1386.65,-34.6) ">
<use xlink:href="#___1_0_Layer0_0_MEMBER_1_MEMBER_15_FILL"></use>
</g>

<g transform="matrix( 1, 0, 0, 1, -1386.65,-34.6) ">
<use xlink:href="#___1_0_Layer0_0_MEMBER_1_MEMBER_16_FILL"></use>
</g>

<g transform="matrix( 1, 0, 0, 1, -1386.65,-34.6) ">
<use xlink:href="#___1_0_Layer0_0_MEMBER_1_MEMBER_17_FILL"></use>
</g>

<g transform="matrix( 1, 0, 0, 1, -1386.65,-34.6) ">
<use xlink:href="#___1_0_Layer0_0_MEMBER_1_MEMBER_18_FILL"></use>
</g>

<g transform="matrix( 1, 0, 0, 1, -1386.65,-34.6) ">
<use xlink:href="#___1_0_Layer0_0_MEMBER_1_MEMBER_19_FILL"></use>
</g>

<g transform="matrix( 1, 0, 0, 1, -1386.65,-34.6) ">
<use xlink:href="#___1_0_Layer0_0_MEMBER_1_MEMBER_20_FILL"></use>
</g>

<g transform="matrix( 1, 0, 0, 1, -1386.65,-34.6) ">
<use xlink:href="#___1_0_Layer0_0_MEMBER_1_MEMBER_21_FILL"></use>
</g>

<g transform="matrix( 1, 0, 0, 1, -1386.65,-34.6) ">
<use xlink:href="#___1_0_Layer0_0_MEMBER_1_MEMBER_22_FILL"></use>
</g>

<g transform="matrix( 1, 0, 0, 1, -1386.65,-34.6) ">
<use xlink:href="#___1_0_Layer0_0_MEMBER_1_MEMBER_23_FILL"></use>
</g>

<g transform="matrix( 1, 0, 0, 1, -1386.65,-34.6) ">
<use xlink:href="#___1_0_Layer0_0_MEMBER_1_MEMBER_24_FILL"></use>
</g>

<g transform="matrix( 1, 0, 0, 1, -1386.65,-34.6) ">
<use xlink:href="#___1_0_Layer0_0_MEMBER_1_MEMBER_25_FILL"></use>
</g>

<g transform="matrix( 1, 0, 0, 1, -1386.65,-34.6) ">
<use xlink:href="#___1_0_Layer0_0_MEMBER_1_MEMBER_26_FILL"></use>
</g>

<g transform="matrix( 1, 0, 0, 1, -1386.65,-34.6) ">
<use xlink:href="#___1_0_Layer0_0_MEMBER_1_MEMBER_27_FILL"></use>
</g>

<g transform="matrix( 1, 0, 0, 1, -1386.65,-34.6) ">
<use xlink:href="#___1_0_Layer0_0_MEMBER_1_MEMBER_28_FILL"></use>
</g>

<g transform="matrix( 1, 0, 0, 1, -1386.65,-34.6) ">
<use xlink:href="#___1_0_Layer0_0_MEMBER_1_MEMBER_29_FILL"></use>
</g>

<g transform="matrix( 1, 0, 0, 1, -1386.65,-34.6) ">
<use xlink:href="#___1_0_Layer0_0_MEMBER_2_MEMBER_0_FILL"></use>
</g>

<g transform="matrix( 1, 0, 0, 1, -1386.65,-34.6) ">
<use xlink:href="#___1_0_Layer0_0_MEMBER_2_MEMBER_1_FILL"></use>
</g>

<g transform="matrix( 1, 0, 0, 1, -1386.65,-34.6) ">
<use xlink:href="#___1_0_Layer0_0_MEMBER_2_MEMBER_2_FILL"></use>
</g>

<g transform="matrix( 1, 0, 0, 1, -1386.65,-34.6) ">
<use xlink:href="#___1_0_Layer0_0_MEMBER_2_MEMBER_3_FILL"></use>
</g>

<g transform="matrix( 1, 0, 0, 1, -1386.65,-34.6) ">
<use xlink:href="#___1_0_Layer0_0_MEMBER_2_MEMBER_4_FILL"></use>
</g>

<g transform="matrix( 1, 0, 0, 1, -1386.65,-34.6) ">
<use xlink:href="#___1_0_Layer0_0_MEMBER_2_MEMBER_5_FILL"></use>
</g>

<g transform="matrix( 1, 0, 0, 1, -1386.65,-34.6) ">
<use xlink:href="#___1_0_Layer0_0_MEMBER_2_MEMBER_6_FILL"></use>
</g>

<g transform="matrix( 1, 0, 0, 1, -1386.65,-34.6) ">
<use xlink:href="#___1_0_Layer0_0_MEMBER_2_MEMBER_7_FILL"></use>
</g>

<g transform="matrix( 1, 0, 0, 1, -1386.65,-34.6) ">
<use xlink:href="#___1_0_Layer0_0_MEMBER_2_MEMBER_8_FILL"></use>
</g>

<g transform="matrix( 1, 0, 0, 1, -1386.65,-34.6) ">
<use xlink:href="#___1_0_Layer0_0_MEMBER_2_MEMBER_9_FILL"></use>
</g>

<g transform="matrix( 1, 0, 0, 1, -1386.65,-34.6) ">
<use xlink:href="#___1_0_Layer0_0_MEMBER_2_MEMBER_10_FILL"></use>
</g>

<g transform="matrix( 1, 0, 0, 1, -1386.65,-34.6) ">
<use xlink:href="#___1_0_Layer0_0_MEMBER_2_MEMBER_11_FILL"></use>
</g>

<g transform="matrix( 1, 0, 0, 1, -1386.65,-34.6) ">
<use xlink:href="#___1_0_Layer0_0_MEMBER_2_MEMBER_12_FILL"></use>
</g>

<g transform="matrix( 1, 0, 0, 1, -1386.65,-34.6) ">
<use xlink:href="#___1_0_Layer0_0_MEMBER_2_MEMBER_13_FILL"></use>
</g>

<g transform="matrix( 1, 0, 0, 1, -1386.65,-34.6) ">
<use xlink:href="#___1_0_Layer0_0_MEMBER_2_MEMBER_14_FILL"></use>
</g>

<g transform="matrix( 1, 0, 0, 1, -1386.65,-34.6) ">
<use xlink:href="#___1_0_Layer0_0_MEMBER_2_MEMBER_15_FILL"></use>
</g>

<g transform="matrix( 1, 0, 0, 1, -1386.65,-34.6) ">
<use xlink:href="#___1_0_Layer0_0_MEMBER_2_MEMBER_16_FILL"></use>
</g>

<g transform="matrix( 1, 0, 0, 1, -1386.65,-34.6) ">
<use xlink:href="#___1_0_Layer0_0_MEMBER_2_MEMBER_17_FILL"></use>
</g>
</g>
</svg>
